<svg height="511pt" viewBox="0 -26 511.99963 511" width="511pt" xmlns="http://www.w3.org/2000/svg"><path d="m256.035156 459.429688c-3.804687 0-7.609375-1.4375-10.53125-4.316407l-201.496094-198.605469c-.027343-.023437-.054687-.050781-.078124-.074218-28.328126-28.324219-43.929688-65.984375-43.929688-106.039063 0-40.058593 15.601562-77.714843 43.929688-106.039062 58.476562-58.472657 153.628906-58.472657 212.109374-.003907 58.464844-58.46875 153.625-58.46875 212.101563 0v.003907c58.476563 58.46875 58.476563 153.605469 0 212.078125-.023437.023437-.050781.050781-.074219.074218l-201.5 198.605469c-2.917968 2.878907-6.726562 4.316407-10.53125 4.316407zm201.5-213.601563h.007813zm0 0" fill="#f93057"/><path d="m468.140625 44.351562c-58.476563-58.46875-153.632813-58.46875-212.101563 0h-.003906v415.078126c3.804688 0 7.613282-1.4375 10.53125-4.316407l201.5-198.605469c.023438-.023437.050782-.050781.074219-.074218 58.476563-58.472656 58.476563-153.609375 0-212.082032zm0 0" fill="#e22753"/><path d="m181 167.429688c-8.285156 0-15-6.714844-15-15 0-8.269532-6.730469-15-15-15s-15 6.730468-15 15c0 8.285156-6.714844 15-15 15s-15-6.714844-15-15c0-24.8125 20.1875-45 45-45s45 20.1875 45 45c0 8.285156-6.714844 15-15 15zm0 0" fill="#464646"/><path d="m391 167.429688c-8.285156 0-15-6.714844-15-15 0-8.269532-6.730469-15-15-15s-15 6.730468-15 15c0 8.285156-6.714844 15-15 15s-15-6.714844-15-15c0-24.8125 20.1875-45 45-45s45 20.1875 45 45c0 8.285156-6.714844 15-15 15zm0 0" fill="#2d2d2d"/><path d="m256 327.429688c-41.355469 0-75-33.644532-75-75 0-8.285157 6.714844-15 15-15h120c8.285156 0 15 6.714843 15 15 0 41.355468-33.644531 75-75 75zm0 0" fill="#cc2551"/><path d="m316 237.429688h-60v90c41.355469 0 75-33.644532 75-75 0-8.285157-6.714844-15-15-15zm0 0" fill="#a5174a"/></svg>